<?xml version="1.0" standalone="no"?>
<!DOCTYPE svg PUBLIC "-//W3C//DTD SVG 20010904//EN"
 "http://www.w3.org/TR/2001/REC-SVG-20010904/DTD/svg10.dtd">
<svg version="1.0" xmlns="http://www.w3.org/2000/svg"
 width="30pt" height="30pt" viewBox="0 0 700.000000 1280.000000"
 preserveAspectRatio="xMidYMid meet">
<metadata>
Created by potrace 1.15, written by Peter Selinger 2001-2017
</metadata>
<g transform="translate(0.000000,1280.000000) scale(0.100000,-0.100000)"
fill="#4D4D4D" stroke="none">
<path d="M4129 12614 c-7 -9 -16 -61 -20 -128 -14 -204 -97 -536 -168 -669
-27 -51 -74 -140 -105 -199 -30 -59 -80 -154 -111 -212 -87 -163 -192 -399
-214 -484 -11 -42 -28 -102 -38 -132 -12 -41 -17 -98 -18 -229 l-2 -174 -44
-22 c-137 -66 -386 -263 -555 -438 -256 -264 -476 -613 -582 -922 -183 -531
-237 -811 -252 -1290 -22 -720 83 -1448 281 -1952 27 -68 49 -130 49 -138 0
-7 16 -44 36 -82 38 -74 39 -90 11 -193 -18 -66 -124 -300 -200 -443 -169
-315 -230 -424 -255 -455 -15 -18 -40 -55 -57 -81 -63 -100 -114 -177 -138
-206 -13 -16 -31 -44 -40 -61 -9 -17 -23 -36 -31 -44 -9 -7 -24 -31 -35 -54
-10 -23 -60 -91 -112 -152 -52 -61 -155 -184 -229 -275 -140 -171 -278 -329
-595 -684 -317 -356 -479 -568 -525 -692 -58 -155 -16 -342 91 -402 88 -50
189 -7 351 147 l78 75 -30 -67 c-65 -144 -97 -358 -69 -461 15 -52 88 -174
116 -193 62 -40 265 29 349 119 65 69 206 283 326 492 100 176 284 537 338
665 13 29 24 51 25 50 2 -2 -12 -57 -31 -122 -124 -437 -154 -869 -84 -1216
20 -98 126 -433 154 -488 20 -40 34 -43 169 -44 118 -1 127 2 232 61 56 32 67
44 125 126 77 112 136 264 220 560 21 77 90 536 115 770 25 230 76 678 90 790
l13 100 1 -225 c3 -456 53 -746 223 -1273 12 -38 58 -135 103 -215 153 -274
180 -311 254 -344 103 -47 191 20 242 183 53 169 95 661 115 1345 10 328 -19
1131 -52 1454 -23 226 -104 866 -120 954 -9 43 -12 82 -7 86 4 4 37 17 72 29
204 73 1022 489 1106 563 24 21 61 46 81 54 40 17 69 36 133 92 21 17 43 32
49 32 5 0 90 64 188 142 207 164 552 501 684 668 165 208 255 358 367 608 128
287 144 324 178 437 75 248 105 463 112 802 9 439 -31 701 -177 1148 -89 274
-122 464 -123 702 -1 84 1 155 5 158 3 3 33 10 66 16 69 11 393 119 462 154
75 39 130 92 130 127 0 38 -40 76 -106 102 -113 42 -194 68 -274 87 -47 10
-95 21 -107 24 -20 5 -23 12 -23 58 0 69 -69 309 -118 412 -96 198 -256 397
-397 492 -194 131 -394 194 -885 278 -316 55 -354 64 -473 116 -79 34 -104 52
-172 120 -71 69 -85 79 -116 79 -21 0 -42 -7 -50 -16z"/>
</g>
</svg>
