<svg width="24" height="23" viewBox="0 0 24 23" fill="none" xmlns="http://www.w3.org/2000/svg">
<path d="M12 0.460815C5.64817 0.460815 0.480011 5.42225 0.480011 11.52C0.480011 14.7875 1.96513 17.7279 4.32001 19.7541V19.7619L4.48705 19.9001C4.51633 19.9245 4.54849 19.9448 4.57825 19.9688C4.78513 20.1365 4.99825 20.2973 5.21713 20.4512C5.27617 20.4927 5.33521 20.5328 5.39521 20.5729C5.62753 20.7296 5.86513 20.8789 6.10897 21.0189C6.14977 21.0424 6.19153 21.0646 6.23233 21.0871C6.49969 21.2364 6.77281 21.377 7.05313 21.5056C7.05601 21.5069 7.05889 21.5079 7.06177 21.5092C7.66129 21.7834 8.29009 22.0078 8.94097 22.1802C8.95297 22.1834 8.96497 22.1871 8.97697 22.1898C9.28465 22.2705 9.59761 22.3382 9.91489 22.394C9.94465 22.399 9.97393 22.4041 10.0037 22.4092C10.3099 22.4608 10.62 22.5018 10.9344 22.5299C10.9704 22.5331 11.0064 22.535 11.0419 22.5377C11.3583 22.5631 11.677 22.5792 12 22.5792C12.3231 22.5792 12.6418 22.5631 12.9581 22.5377C12.9941 22.535 13.0301 22.5331 13.0656 22.5299C13.38 22.5023 13.6901 22.4608 13.9963 22.4092C14.0261 22.4041 14.0554 22.399 14.0851 22.394C14.4024 22.3382 14.7154 22.2705 15.0231 22.1898C15.0351 22.1866 15.0471 22.1834 15.0591 22.1802C15.7099 22.0078 16.3387 21.7834 16.9383 21.5092C16.9411 21.5079 16.944 21.5069 16.9469 21.5056C17.2272 21.377 17.5003 21.236 17.7677 21.0871C17.809 21.0641 17.8503 21.0424 17.8911 21.0189C18.1354 20.8789 18.373 20.7291 18.6048 20.5729C18.6643 20.5328 18.7239 20.4927 18.7829 20.4512C19.0018 20.2973 19.2149 20.1365 19.4218 19.9688C19.4515 19.9448 19.4837 19.9245 19.513 19.9001L19.68 19.7619V19.7541C22.0349 17.7275 23.52 14.7875 23.52 11.52C23.52 5.42225 18.3519 0.460815 12 0.460815ZM12 11.52C9.88273 11.52 8.16001 9.86621 8.16001 7.83362C8.16001 5.80103 9.88273 4.14722 12 4.14722C14.1173 4.14722 15.84 5.80103 15.84 7.83362C15.84 9.86621 14.1173 11.52 12 11.52ZM13.44 12.4416C16.3512 12.4416 18.72 14.7157 18.72 17.5104V19.3343C18.6999 19.3504 18.6787 19.3651 18.6586 19.3813C18.469 19.5292 18.2746 19.6697 18.0759 19.8043C18.0317 19.8342 17.9885 19.8651 17.9443 19.8941C17.7298 20.0347 17.5095 20.1665 17.2853 20.2913C17.2445 20.3144 17.2032 20.337 17.1619 20.3595C16.9267 20.4863 16.6872 20.6052 16.4429 20.7139C16.4175 20.7254 16.3915 20.7365 16.3656 20.7475C15.5683 21.0954 14.7283 21.3475 13.8639 21.4968C13.8365 21.5014 13.8091 21.5065 13.7818 21.5111C13.5096 21.5558 13.2351 21.5903 12.9586 21.6148C12.9207 21.618 12.8823 21.6203 12.8439 21.6231C12.564 21.6438 12.2827 21.6576 12 21.6576C11.7173 21.6576 11.436 21.6438 11.1562 21.6221C11.1183 21.6194 11.0799 21.6171 11.0415 21.6138C10.765 21.5894 10.4904 21.5553 10.2183 21.5102C10.1909 21.5056 10.1635 21.5009 10.1362 21.4959C9.27169 21.3466 8.43169 21.0945 7.63441 20.7466C7.60849 20.7351 7.58257 20.7245 7.55713 20.713C7.31281 20.6042 7.07329 20.4853 6.83809 20.3586C6.79681 20.336 6.75601 20.3135 6.71473 20.2904C6.49057 20.166 6.27025 20.0338 6.05569 19.8932C6.01105 19.8642 5.96785 19.8333 5.92417 19.8034C5.72545 19.6688 5.53105 19.5287 5.34145 19.3803C5.32129 19.3647 5.30017 19.3495 5.28001 19.3333V17.5104C5.28001 14.7157 7.64881 12.4416 10.56 12.4416H13.44ZM19.68 18.467V17.5104C19.68 14.6207 17.5373 12.2025 14.6976 11.6421C15.9653 10.8122 16.8 9.41462 16.8 7.83362C16.8 5.29276 14.6467 3.22562 12 3.22562C9.35329 3.22562 7.20001 5.29276 7.20001 7.83362C7.20001 9.41462 8.03473 10.8122 9.30241 11.6421C6.46273 12.2025 4.32001 14.6207 4.32001 17.5104V18.467C2.53633 16.651 1.44001 14.2069 1.44001 11.52C1.44001 5.93005 6.17713 1.38242 12 1.38242C17.8229 1.38242 22.56 5.93005 22.56 11.52C22.56 14.2069 21.4637 16.651 19.68 18.467Z" fill="black"/>
</svg>
