<svg width="24" height="24" viewBox="0 0 24 24" fill="none" xmlns="http://www.w3.org/2000/svg">
<path d="M13.5432 24C13.5075 24 13.4717 23.9985 13.436 23.9953C13.1839 23.9728 12.9454 23.8712 12.7545 23.705C12.5636 23.5388 12.4302 23.3165 12.3734 23.0699L10.228 13.7718L0.930464 11.6266C0.683784 11.5697 0.461399 11.4363 0.295121 11.2454C0.128849 11.0545 0.0272073 10.8159 0.00473581 10.5638C-0.01773 10.3116 0.0401221 10.0588 0.170029 9.84153C0.29993 9.62424 0.495221 9.45364 0.727968 9.35407L22.3276 0.0969081C22.548 0.00251009 22.7916 -0.0236911 23.0271 0.0216798C23.2625 0.0670563 23.479 0.181929 23.6485 0.351482C23.8181 0.521035 23.933 0.737489 23.9783 0.972939C24.0237 1.20839 23.9975 1.45204 23.9031 1.67246L14.646 23.2723C14.5536 23.4882 14.3998 23.6722 14.2038 23.8016C14.0077 23.9309 13.7781 23.9999 13.5432 24ZM5.04806 10.1138L11.4985 11.6022C11.7177 11.6528 11.9182 11.7639 12.0772 11.9229C12.2362 12.082 12.3474 12.2825 12.3979 12.5016L13.8863 18.9522L20.5151 3.48499L5.04806 10.1138Z" fill="white"/>
</svg>
